<svg data-v-423bf9ae="" xmlns="http://www.w3.org/2000/svg" viewBox="0 0 269.8903438167089 60" class="font"><!----><!----><!----><g data-v-423bf9ae="" id="6e25a7e2-95a7-49d5-8b75-022247642439" fill="white" transform="matrix(4.680187318898582,0,0,4.680187318898582,-4.539785484827661,-15.163806719446576)"><path d="M1.87 16.06L1.28 16.06L1.28 16.06Q0.97 16.06 0.97 15.76L0.97 15.76L0.97 6.46L0.97 6.46Q0.97 6.15 1.28 6.15L1.28 6.15L1.85 6.15L1.85 6.15Q2.10 6.15 2.12 6.46L2.12 6.46L2.16 7.01L2.17 7.01L2.17 7.01Q2.55 6.56 3.02 6.30L3.02 6.30L3.02 6.30Q3.49 6.04 4.28 6.04L4.28 6.04L4.28 6.04Q5.65 6.04 6.36 7.15L6.36 7.15L6.36 7.15Q7.07 8.27 7.07 9.74L7.07 9.74L7.07 9.74Q7.07 11.21 6.36 12.33L6.36 12.33L6.36 12.33Q5.65 13.45 4.28 13.45L4.28 13.45L4.28 13.45Q3.49 13.45 3.02 13.19L3.02 13.19L3.02 13.19Q2.55 12.93 2.17 12.48L2.17 12.48L2.16 12.48L2.16 12.48Q2.17 12.68 2.17 12.89L2.17 12.89L2.17 15.76L2.17 15.76Q2.17 16.06 1.87 16.06L1.87 16.06ZM2.17 8.96L2.17 10.53L2.17 10.53Q2.17 11.55 2.66 12.06L2.66 12.06L2.66 12.06Q3.15 12.56 3.89 12.56L3.89 12.56L3.89 12.56Q4.93 12.56 5.36 11.78L5.36 11.78L5.36 11.78Q5.80 11.00 5.80 9.74L5.80 9.74L5.80 9.74Q5.80 8.48 5.36 7.70L5.36 7.70L5.36 7.70Q4.93 6.92 3.89 6.92L3.89 6.92L3.89 6.92Q3.15 6.92 2.66 7.43L2.66 7.43L2.66 7.43Q2.17 7.93 2.17 8.96L2.17 8.96ZM8.61 10.83L8.61 10.83L8.61 6.46L8.61 6.46Q8.61 6.15 8.91 6.15L8.91 6.15L9.50 6.15L9.50 6.15Q9.81 6.15 9.81 6.46L9.81 6.46L9.81 10.50L9.81 10.50Q9.81 11.84 10.25 12.20L10.25 12.20L10.25 12.20Q10.70 12.56 11.35 12.56L11.35 12.56L11.35 12.56Q12.22 12.56 12.67 12.03L12.67 12.03L12.67 12.03Q13.13 11.50 13.13 10.21L13.13 10.21L13.13 6.46L13.13 6.46Q13.13 6.15 13.44 6.15L13.44 6.15L14.03 6.15L14.03 6.15Q14.33 6.15 14.33 6.46L14.33 6.46L14.33 13.02L14.33 13.02Q14.33 13.33 14.03 13.33L14.03 13.33L13.45 13.33L13.45 13.33Q13.15 13.33 13.15 13.02L13.15 13.02L13.15 12.48L13.12 12.48L13.12 12.48Q12.67 12.97 12.16 13.21L12.16 13.21L12.16 13.21Q11.65 13.45 10.91 13.45L10.91 13.45L10.91 13.45Q9.71 13.45 9.16 12.75L9.16 12.75L9.16 12.75Q8.61 12.04 8.61 10.83ZM15.87 12.66L15.87 12.66L15.87 12.66Q15.66 12.46 15.78 12.29L15.78 12.29L16.09 11.86L16.09 11.86Q16.24 11.66 16.54 11.88L16.54 11.88L16.54 11.88Q16.94 12.19 17.44 12.37L17.44 12.37L17.44 12.37Q17.93 12.56 18.57 12.56L18.57 12.56L18.57 12.56Q18.94 12.56 19.24 12.47L19.24 12.47L19.24 12.47Q19.53 12.37 19.75 12.12L19.75 12.12L19.75 12.12Q19.97 11.87 19.97 11.44L19.97 11.44L19.97 11.44Q19.97 11.20 19.87 10.98L19.87 10.98L19.87 10.98Q19.76 10.76 19.54 10.63L19.54 10.63L19.54 10.63Q19.32 10.49 19.11 10.42L19.11 10.42L19.11 10.42Q18.76 10.29 18.41 10.20L18.41 10.20L18.41 10.20Q18.07 10.12 17.51 9.94L17.51 9.94L17.51 9.94Q17.13 9.82 16.80 9.61L16.80 9.61L16.80 9.61Q16.46 9.39 16.21 9.02L16.21 9.02L16.21 9.02Q15.96 8.65 15.96 8.00L15.96 8.00L15.96 8.00Q15.96 7.34 16.37 6.86L16.37 6.86L16.37 6.86Q16.77 6.38 17.38 6.21L17.38 6.21L17.38 6.21Q17.99 6.04 18.56 6.04L18.56 6.04L18.56 6.04Q19.41 6.04 19.92 6.23L19.92 6.23L19.92 6.23Q20.44 6.43 20.82 6.69L20.82 6.69L20.82 6.69Q21.03 6.85 20.88 7.05L20.88 7.05L20.57 7.46L20.57 7.46Q20.43 7.66 20.13 7.45L20.13 7.45L20.13 7.45Q19.87 7.27 19.41 7.12L19.41 7.12L19.41 7.12Q18.94 6.96 18.59 6.96L18.59 6.96L18.59 6.96Q18.16 6.96 17.86 7.05L17.86 7.05L17.86 7.05Q17.55 7.15 17.36 7.38L17.36 7.38L17.36 7.38Q17.17 7.62 17.17 7.93L17.17 7.93L17.17 7.93Q17.17 8.17 17.24 8.36L17.24 8.36L17.24 8.36Q17.32 8.54 17.52 8.70L17.52 8.70L17.52 8.70Q17.73 8.86 18.09 8.96L18.09 8.96L18.09 8.96Q18.67 9.11 19.14 9.23L19.14 9.23L19.14 9.23Q19.62 9.35 20.00 9.53L20.00 9.53L20.00 9.53Q20.50 9.76 20.77 10.04L20.77 10.04L20.77 10.04Q21.04 10.32 21.14 10.65L21.14 10.65L21.14 10.65Q21.25 10.97 21.25 11.37L21.25 11.37L21.25 11.37Q21.25 12.10 20.81 12.61L20.81 12.61L20.81 12.61Q20.38 13.11 19.84 13.28L19.84 13.28L19.84 13.28Q19.31 13.45 18.56 13.45L18.56 13.45L18.56 13.45Q17.54 13.45 16.81 13.16L16.81 13.16L16.81 13.16Q16.08 12.87 15.87 12.66ZM23.63 13.33L23.04 13.33L23.04 13.33Q22.73 13.33 22.73 13.02L22.73 13.02L22.73 3.55L22.73 3.55Q22.73 3.24 23.04 3.24L23.04 3.24L23.63 3.24L23.63 3.24Q23.93 3.24 23.93 3.55L23.93 3.55L23.93 6.60L23.93 6.60Q23.93 6.80 23.92 7.01L23.92 7.01L23.95 7.01L23.95 7.01Q24.39 6.51 24.90 6.28L24.90 6.28L24.90 6.28Q25.42 6.04 26.18 6.04L26.18 6.04L26.18 6.04Q27.43 6.04 27.97 6.74L27.97 6.74L27.97 6.74Q28.51 7.44 28.51 8.65L28.51 8.65L28.51 13.02L28.51 13.02Q28.51 13.33 28.21 13.33L28.21 13.33L27.62 13.33L27.62 13.33Q27.31 13.33 27.31 13.02L27.31 13.02L27.31 8.98L27.31 8.98Q27.31 7.64 26.87 7.28L26.87 7.28L26.87 7.28Q26.42 6.92 25.74 6.92L25.74 6.92L25.74 6.92Q24.85 6.92 24.39 7.45L24.39 7.45L24.39 7.45Q23.93 7.98 23.93 9.27L23.93 9.27L23.93 13.02L23.93 13.02Q23.93 13.33 23.63 13.33L23.63 13.33ZM31.47 12.91L29.78 6.49L29.78 6.49Q29.69 6.15 29.96 6.15L29.96 6.15L30.68 6.15L30.68 6.15Q30.93 6.15 30.99 6.42L30.99 6.42L31.99 10.93L31.99 10.93Q32.04 11.13 32.14 11.55L32.14 11.55L32.14 11.55Q32.24 11.98 32.28 12.17L32.28 12.17L32.31 12.17L32.31 12.17Q32.34 11.98 32.43 11.60L32.43 11.60L32.43 11.60Q32.51 11.22 32.59 10.93L32.59 10.93L33.79 6.42L33.79 6.42Q33.86 6.15 34.10 6.15L34.10 6.15L34.71 6.15L34.71 6.15Q34.95 6.15 35.02 6.42L35.02 6.42L36.22 10.93L36.22 10.93Q36.30 11.22 36.38 11.60L36.38 11.60L36.38 11.60Q36.47 11.98 36.50 12.17L36.50 12.17L36.53 12.17L36.53 12.17Q36.57 11.98 36.67 11.55L36.67 11.55L36.67 11.55Q36.77 11.13 36.82 10.93L36.82 10.93L37.82 6.42L37.82 6.42Q37.88 6.15 38.13 6.15L38.13 6.15L38.85 6.15L38.85 6.15Q39.12 6.15 39.03 6.49L39.03 6.49L37.34 12.91L37.34 12.91Q37.23 13.33 36.97 13.33L36.97 13.33L36.15 13.33L36.15 13.33Q35.89 13.33 35.78 12.91L35.78 12.91L34.62 8.39L34.62 8.39Q34.49 7.92 34.46 7.72L34.46 7.72L34.46 7.72Q34.43 7.53 34.41 7.36L34.41 7.36L34.40 7.36L34.40 7.36Q34.38 7.53 34.35 7.72L34.35 7.72L34.35 7.72Q34.32 7.92 34.19 8.39L34.19 8.39L33.03 12.91L33.03 12.91Q32.92 13.33 32.66 13.33L32.66 13.33L31.84 13.33L31.84 13.33Q31.58 13.33 31.47 12.91L31.47 12.91ZM39.92 9.74L39.92 9.74L39.92 9.74Q39.92 8.13 40.77 7.09L40.77 7.09L40.77 7.09Q41.62 6.04 43.26 6.04L43.26 6.04L43.26 6.04Q44.91 6.04 45.76 7.09L45.76 7.09L45.76 7.09Q46.61 8.13 46.61 9.74L46.61 9.74L46.61 9.74Q46.61 11.35 45.76 12.40L45.76 12.40L45.76 12.40Q44.91 13.45 43.26 13.45L43.26 13.45L43.26 13.45Q41.62 13.45 40.77 12.40L40.77 12.40L40.77 12.40Q39.92 11.35 39.92 9.74ZM41.19 9.74L41.19 9.74L41.19 9.74Q41.19 11.18 41.76 11.87L41.76 11.87L41.76 11.87Q42.33 12.56 43.26 12.56L43.26 12.56L43.26 12.56Q44.20 12.56 44.77 11.87L44.77 11.87L44.77 11.87Q45.34 11.18 45.34 9.74L45.34 9.74L45.34 9.74Q45.34 8.31 44.77 7.62L44.77 7.62L44.77 7.62Q44.20 6.92 43.26 6.92L43.26 6.92L43.26 6.92Q42.33 6.92 41.76 7.62L41.76 7.62L41.76 7.62Q41.19 8.31 41.19 9.74ZM49.05 13.33L48.47 13.33L48.47 13.33Q48.16 13.33 48.16 13.02L48.16 13.02L48.16 6.46L48.16 6.46Q48.16 6.15 48.47 6.15L48.47 6.15L49.04 6.15L49.04 6.15Q49.35 6.15 49.35 6.46L49.35 6.46L49.35 7.28L49.38 7.28L49.38 7.28Q49.70 6.67 50.15 6.35L50.15 6.35L50.15 6.35Q50.59 6.04 51.26 6.04L51.26 6.04L51.26 6.04Q51.69 6.04 51.87 6.11L51.87 6.11L51.87 6.11Q52.03 6.17 51.99 6.32L51.99 6.32L51.83 6.88L51.83 6.88Q51.80 7 51.65 6.97L51.65 6.97L51.65 6.97Q51.41 6.92 51.20 6.92L51.20 6.92L51.20 6.92Q50.40 6.92 49.88 7.65L49.88 7.65L49.88 7.65Q49.36 8.37 49.36 9.61L49.36 9.61L49.36 13.02L49.36 13.02Q49.36 13.33 49.05 13.33L49.05 13.33ZM53.99 13.33L53.40 13.33L53.40 13.33Q53.09 13.33 53.09 13.02L53.09 13.02L53.09 3.55L53.09 3.55Q53.09 3.24 53.40 3.24L53.40 3.24L53.99 3.24L53.99 3.24Q54.30 3.24 54.30 3.55L54.30 3.55L54.30 9.24L54.30 9.24Q54.30 9.44 54.28 9.65L54.28 9.65L54.30 9.65L57.07 6.33L57.07 6.33Q57.22 6.15 57.43 6.15L57.43 6.15L58.05 6.15L58.05 6.15Q58.57 6.15 58.23 6.56L58.23 6.56L56.08 9.11L58.54 12.93L58.54 12.93Q58.80 13.33 58.36 13.33L58.36 13.33L57.69 13.33L57.69 13.33Q57.46 13.33 57.30 13.08L57.30 13.08L55.33 10.01L54.30 11.24L54.30 13.02L54.30 13.02Q54.30 13.33 53.99 13.33L53.99 13.33Z"></path></g><!----><!----></svg>